<svg width="20" height="20" viewBox="0 0 20 20" fill="none" xmlns="http://www.w3.org/2000/svg">
<path d="M18.6709 1.35035C19.7661 2.43488 20 3.93408 20 5.96491V14.0457C20 16.0766 19.7661 17.5651 18.6709 18.6603C17.5651 19.7554 16.0553 20 14.0351 20H5.96491C3.93408 20 2.43488 19.7554 1.32908 18.6603C0.233918 17.5651 0 16.0766 0 14.0457V5.94365C0 3.93408 0.233918 2.44551 1.32908 1.35035C2.42424 0.244551 3.94471 0 5.94365 0H14.0351C16.0553 0 17.5651 0.244551 18.6709 1.35035ZM9.99468 15.8107C13.1526 15.8107 15.7788 13.1738 15.7788 10.0159C15.7788 6.84742 13.1526 4.22116 9.99468 4.22116C6.82616 4.22116 4.19989 6.84742 4.19989 10.0159C4.19989 13.1632 6.83679 15.8107 9.99468 15.8107ZM8.11271 6.75173C8.65497 6.41148 9.30356 6.19883 9.99468 6.19883C12.0468 6.19883 13.7905 7.95322 13.7905 10.0159C13.7905 10.6964 13.5885 11.3344 13.2483 11.8767L8.11271 6.75173ZM6.1882 10.0159C6.1882 9.32483 6.39022 8.67624 6.73046 8.13397L11.8767 13.2695C11.3238 13.6204 10.6752 13.8224 9.99468 13.8224C7.93195 13.8224 6.1882 12.068 6.1882 10.0159Z" fill="white"/>
</svg>
