<svg width="20" height="20" viewBox="0 0 20 20" fill="none" xmlns="http://www.w3.org/2000/svg">
<path d="M10 20C4.51705 20 0 15.4851 0 9.99527C0 4.51491 4.50758 0 10 0C15.483 0 20 4.51491 20 9.99527C20 15.4851 15.4924 20 10 20ZM10 17.5106C14.1667 17.5106 17.5189 14.16 17.5095 9.99527C17.5095 5.84004 14.1572 2.48935 10 2.48935C5.83333 2.48935 2.5 5.84004 2.5 9.99527C2.5 14.16 5.8428 17.5106 10 17.5106ZM10 15.911C6.7803 15.911 4.08144 13.2324 4.08144 10.0047C4.08144 6.76763 6.76136 4.07951 10 4.07951C13.2576 4.07951 15.9186 6.7487 15.9186 10.0047C15.9186 13.2324 13.2386 15.911 10 15.911ZM10 13.7908C12.0549 13.7908 13.7879 12.0587 13.7879 10.0047C13.7879 7.95078 12.0455 6.20918 10 6.20918C7.94508 6.20918 6.21212 7.94132 6.21212 10.0047C6.21212 12.0492 7.95455 13.7908 10 13.7908ZM10.0095 12.2007C8.80682 12.2007 7.79356 11.1973 7.79356 9.99527C7.79356 8.79319 8.79735 7.79934 10.0095 7.79934C11.2027 7.79934 12.2159 8.80265 12.2159 9.99527C12.2159 11.2068 11.2121 12.2007 10.0095 12.2007Z" fill="white"/>
</svg>
