<svg width="21" height="19" viewBox="0 0 21 19" fill="none" xmlns="http://www.w3.org/2000/svg">
<path d="M7.82724 18.5852C7.64689 18.5852 7.38538 18.504 7.15093 18.3868C1.86664 15.6274 0 14.2027 0 10.9203V4.24727C0 2.95776 0.423825 2.43474 1.55102 1.95681C2.43474 1.58709 5.72615 0.44186 6.55577 0.207404C6.95254 0.0991932 7.43949 0 7.82724 0C8.215 0 8.70195 0.081158 9.09872 0.207404C9.93735 0.477931 13.2197 1.57807 14.1125 1.95681C15.2307 2.43474 15.6635 2.95776 15.6635 4.24727V8.14286C14.897 8.14286 14.1666 8.30517 13.5083 8.59373V4.54485C13.5083 4.20218 13.4271 4.0579 13.1747 3.95871C11.9212 3.4898 9.53156 2.6692 8.59373 2.31751C8.29616 2.22734 8.1158 2.16421 7.92644 2.14618V16.2046C8.01661 16.1865 8.10679 16.1414 8.27812 16.0422L9.67584 15.2126C9.76602 15.9881 10.0275 16.7186 10.4153 17.3588C9.83816 17.6834 9.19791 18.0261 8.51258 18.3868C8.2691 18.504 8.00759 18.5852 7.82724 18.5852ZM15.6635 19C13.0664 19 10.9203 16.8538 10.9203 14.2477C10.9203 11.6507 13.0664 9.50451 15.6635 9.50451C18.2696 9.50451 20.4158 11.6507 20.4158 14.2477C20.4158 16.8448 18.2515 19 15.6635 19ZM15.1766 16.8448C15.4381 16.8448 15.6815 16.7366 15.8168 16.5653L18.4048 13.0484C18.5131 12.9131 18.5581 12.7418 18.5581 12.6065C18.5581 12.1737 18.2065 11.831 17.7736 11.831C17.5121 11.831 17.2776 11.9663 17.1243 12.1737L15.1224 14.9421L14.1846 13.8961C14.0494 13.7337 13.86 13.6526 13.6165 13.6526C13.2197 13.6526 12.832 13.9321 12.832 14.4371C12.832 14.6355 12.9312 14.8339 13.0755 14.9962L14.5634 16.6013C14.7167 16.7817 14.9692 16.8448 15.1766 16.8448Z" fill="white"/>
</svg>
