<svg width="18" height="22" viewBox="0 0 18 22" fill="none" xmlns="http://www.w3.org/2000/svg">
<path d="M9 22C8.82396 22 8.5599 21.9447 8.27384 21.7897C2.12347 18.3038 0 16.8431 0 12.8702V4.52616C0 3.38632 0.49511 3.01006 1.40831 2.6338C2.6956 2.11368 6.81051 0.575453 8.0978 0.15493C8.38386 0.0663984 8.69193 0 9 0C9.30807 0 9.61614 0.055332 9.9132 0.15493C11.1895 0.597585 15.3044 2.10262 16.5917 2.6338C17.5159 3.02113 18 3.38632 18 4.52616V12.8702C18 16.8431 15.9866 18.492 9.72616 21.7897C9.4511 21.9336 9.17604 22 9 22ZM4.90709 15.1056C4.90709 15.9577 5.28117 16.3561 6.06235 16.3561H11.9377C12.7188 16.3561 13.0929 15.9577 13.0929 15.1056V10.5684C13.0929 9.76056 12.7628 9.36217 12.1027 9.31791V7.97887C12.1027 5.87626 10.8484 4.45976 9 4.45976C7.15159 4.45976 5.89731 5.87626 5.89731 7.97887V9.31791C5.23716 9.36217 4.90709 9.76056 4.90709 10.5684V15.1056ZM7.08557 9.30684V7.84608C7.08557 6.50704 7.85575 5.62173 9 5.62173C10.1443 5.62173 10.9144 6.50704 10.9144 7.84608V9.30684H7.08557Z" fill="white"/>
</svg>
