<svg width="14" height="22" viewBox="0 0 14 22" fill="none" xmlns="http://www.w3.org/2000/svg">
<path d="M2.92969 22C1.18164 22 0 20.8617 0 19.174V2.82605C0 1.13827 1.18164 0 2.92969 0H10.9473C12.6562 0 13.7988 1.13827 13.7988 2.82605V19.1641C13.7988 20.8617 12.6562 22 10.9473 22H2.92969ZM3.34961 19.7922H10.459C11.1914 19.7922 11.6211 19.38 11.6211 18.6637V3.33631C11.6211 2.61998 11.1914 2.20785 10.459 2.20785H3.34961C2.60742 2.20785 2.17773 2.61017 2.17773 3.33631V18.6637C2.17773 19.3898 2.60742 19.7922 3.34961 19.7922ZM3.81836 5.25959C3.60352 5.25959 3.45703 5.1124 3.45703 4.89652V3.92507C3.45703 3.70919 3.60352 3.562 3.81836 3.562H4.75586C4.99023 3.562 5.14648 3.70919 5.14648 3.92507V4.89652C5.14648 5.1124 4.99023 5.25959 4.75586 5.25959H3.81836ZM6.41602 5.25959C6.20117 5.25959 6.05469 5.1124 6.05469 4.89652V3.92507C6.05469 3.70919 6.20117 3.562 6.41602 3.562H7.35352C7.58789 3.562 7.74414 3.70919 7.74414 3.92507V4.89652C7.74414 5.1124 7.58789 5.25959 7.35352 5.25959H6.41602ZM9.00391 5.25959C8.78906 5.25959 8.64258 5.1124 8.64258 4.89652V3.92507C8.64258 3.70919 8.78906 3.562 9.00391 3.562H9.95117C10.1758 3.562 10.3418 3.70919 10.3418 3.92507V4.89652C10.3418 5.1124 10.1758 5.25959 9.95117 5.25959H9.00391ZM3.81836 7.96789C3.60352 7.96789 3.45703 7.8207 3.45703 7.60482V6.62355C3.45703 6.40767 3.60352 6.26048 3.81836 6.26048H4.75586C4.99023 6.26048 5.14648 6.40767 5.14648 6.62355V7.60482C5.14648 7.8207 4.99023 7.96789 4.75586 7.96789H3.81836ZM6.41602 7.96789C6.20117 7.96789 6.05469 7.8207 6.05469 7.60482V6.62355C6.05469 6.40767 6.20117 6.26048 6.41602 6.26048H7.35352C7.58789 6.26048 7.74414 6.40767 7.74414 6.62355V7.60482C7.74414 7.8207 7.58789 7.96789 7.35352 7.96789H6.41602ZM9.00391 7.96789C8.78906 7.96789 8.64258 7.8207 8.64258 7.60482V6.62355C8.64258 6.40767 8.78906 6.26048 9.00391 6.26048H9.95117C10.1758 6.26048 10.3418 6.40767 10.3418 6.62355V7.60482C10.3418 7.8207 10.1758 7.96789 9.95117 7.96789H9.00391ZM3.81836 10.6762C3.60352 10.6762 3.45703 10.529 3.45703 10.3033V9.33185C3.45703 9.11597 3.60352 8.96878 3.81836 8.96878H4.75586C4.99023 8.96878 5.14648 9.11597 5.14648 9.33185V10.3033C5.14648 10.529 4.99023 10.6762 4.75586 10.6762H3.81836ZM6.41602 10.6762C6.20117 10.6762 6.05469 10.529 6.05469 10.3033V9.33185C6.05469 9.11597 6.20117 8.96878 6.41602 8.96878H7.35352C7.58789 8.96878 7.74414 9.11597 7.74414 9.33185V10.3033C7.74414 10.529 7.58789 10.6762 7.35352 10.6762H6.41602ZM3.81836 18.4773C3.60352 18.4773 3.45703 18.3301 3.45703 18.1142V17.1427C3.45703 16.9269 3.60352 16.7797 3.81836 16.7797H4.75586C4.99023 16.7797 5.14648 16.9269 5.14648 17.1427V18.1142C5.14648 18.3301 4.99023 18.4773 4.75586 18.4773H3.81836ZM6.41602 18.4773C6.20117 18.4773 6.05469 18.3301 6.05469 18.1142V17.1427C6.05469 16.9269 6.20117 16.7797 6.41602 16.7797H7.35352C7.58789 16.7797 7.74414 16.9269 7.74414 17.1427V18.1142C7.74414 18.3301 7.58789 18.4773 7.35352 18.4773H6.41602ZM9.00391 18.4773C8.78906 18.4773 8.64258 18.3301 8.64258 18.1142V17.1427C8.64258 16.9269 8.78906 16.7797 9.00391 16.7797H9.95117C10.1758 16.7797 10.3418 16.9269 10.3418 17.1427V18.1142C10.3418 18.3301 10.1758 18.4773 9.95117 18.4773H9.00391Z" fill="white"/>
</svg>
